G75*
%MOIN*%
%OFA0B0*%
%FSLAX25Y25*%
%IPPOS*%
%LPD*%
%AMOC8*
5,1,8,0,0,1.08239X$1,22.5*
%
%ADD10R,0.07493X0.03359*%
%ADD11R,0.08674X0.10249*%
%ADD12R,0.02769X0.09887*%
%ADD13C,0.04737*%
%ADD14R,0.07800X0.20800*%
%ADD15R,0.05131X0.04737*%
%ADD16R,0.04737X0.05131*%
%ADD17R,0.04816X0.06312*%
%ADD18R,0.06312X0.04816*%
%ADD19R,0.06706X0.06706*%
%ADD20R,0.07098X0.07098*%
%ADD21C,0.06706*%
D10*
X0046144Y0052816D03*
X0046144Y0057816D03*
X0046144Y0062816D03*
X0046144Y0067816D03*
X0046144Y0072816D03*
X0046144Y0077816D03*
X0046144Y0082816D03*
X0046144Y0087816D03*
X0046144Y0092816D03*
X0046144Y0097816D03*
X0046144Y0102816D03*
X0046144Y0107816D03*
X0046144Y0112816D03*
X0046144Y0117816D03*
X0083782Y0117816D03*
X0083782Y0112816D03*
X0083782Y0107816D03*
X0083782Y0102816D03*
X0083782Y0097816D03*
X0083782Y0092816D03*
X0083782Y0087816D03*
X0083782Y0082816D03*
X0083782Y0077816D03*
X0083782Y0072816D03*
X0083782Y0067816D03*
X0083782Y0062816D03*
X0083782Y0057816D03*
X0083782Y0052816D03*
D11*
X0081845Y0035559D03*
X0081845Y0013905D03*
X0047199Y0013905D03*
X0047199Y0035559D03*
D12*
X0058223Y0037779D03*
X0061372Y0037779D03*
X0064522Y0037779D03*
X0067672Y0037779D03*
X0070821Y0037779D03*
D13*
X0073184Y0025716D03*
X0055861Y0025716D03*
D14*
X0020909Y0065059D03*
X0020909Y0103059D03*
D15*
X0024220Y0118146D03*
X0017527Y0118146D03*
X0017575Y0049978D03*
X0024268Y0049978D03*
D16*
X0034285Y0045844D03*
X0034285Y0039151D03*
X0094004Y0070153D03*
X0094004Y0076846D03*
D17*
X0118094Y0073271D03*
X0125495Y0073271D03*
X0125495Y0083114D03*
X0118094Y0083114D03*
X0118094Y0092956D03*
X0125495Y0092956D03*
X0125495Y0102799D03*
X0118094Y0102799D03*
X0118094Y0112641D03*
X0125495Y0112641D03*
X0125495Y0063429D03*
X0118094Y0063429D03*
X0025240Y0132643D03*
X0017838Y0132643D03*
D18*
X0015685Y0022438D03*
X0022331Y0022438D03*
X0022331Y0029840D03*
X0015685Y0029839D03*
D19*
X0138586Y0053596D03*
X0144491Y0053596D03*
X0157096Y0053573D03*
X0163001Y0053573D03*
X0163001Y0063416D03*
X0157096Y0063416D03*
X0157096Y0073258D03*
X0163001Y0073258D03*
X0163001Y0083101D03*
X0157096Y0083101D03*
X0157096Y0092943D03*
X0163001Y0092943D03*
X0163001Y0102786D03*
X0157096Y0102786D03*
X0157096Y0112628D03*
X0163001Y0112628D03*
D20*
X0095689Y0133254D03*
X0095689Y0134748D03*
X0085847Y0134748D03*
X0085847Y0133254D03*
X0076004Y0133254D03*
X0076004Y0134748D03*
X0066162Y0134748D03*
X0066162Y0133254D03*
X0056319Y0133254D03*
X0056319Y0134748D03*
X0046477Y0134748D03*
X0046477Y0133254D03*
D21*
X0145694Y0024631D03*
M02*
