G75*
%MOIN*%
%OFA0B0*%
%FSLAX25Y25*%
%IPPOS*%
%LPD*%
%AMOC8*
5,1,8,0,0,1.08239X$1,22.5*
%
%ADD10R,0.06693X0.02559*%
%ADD11R,0.07874X0.09449*%
%ADD12R,0.01969X0.09087*%
%ADD13R,0.07000X0.20000*%
%ADD14R,0.04331X0.03937*%
%ADD15R,0.03937X0.04331*%
%ADD16R,0.04016X0.05512*%
%ADD17R,0.05512X0.04016*%
D10*
X0046144Y0052816D03*
X0046144Y0057816D03*
X0046144Y0062816D03*
X0046144Y0067816D03*
X0046144Y0072816D03*
X0046144Y0077816D03*
X0046144Y0082816D03*
X0046144Y0087816D03*
X0046144Y0092816D03*
X0046144Y0097816D03*
X0046144Y0102816D03*
X0046144Y0107816D03*
X0046144Y0112816D03*
X0046144Y0117816D03*
X0083782Y0117816D03*
X0083782Y0112816D03*
X0083782Y0107816D03*
X0083782Y0102816D03*
X0083782Y0097816D03*
X0083782Y0092816D03*
X0083782Y0087816D03*
X0083782Y0082816D03*
X0083782Y0077816D03*
X0083782Y0072816D03*
X0083782Y0067816D03*
X0083782Y0062816D03*
X0083782Y0057816D03*
X0083782Y0052816D03*
D11*
X0081845Y0035559D03*
X0081845Y0013905D03*
X0047199Y0013905D03*
X0047199Y0035559D03*
D12*
X0058223Y0037779D03*
X0061372Y0037779D03*
X0064522Y0037779D03*
X0067672Y0037779D03*
X0070821Y0037779D03*
D13*
X0020909Y0065059D03*
X0020909Y0103059D03*
D14*
X0024220Y0118146D03*
X0017527Y0118146D03*
X0017575Y0049978D03*
X0024268Y0049978D03*
D15*
X0034285Y0045844D03*
X0034285Y0039151D03*
X0094004Y0070153D03*
X0094004Y0076846D03*
D16*
X0118094Y0073271D03*
X0125495Y0073271D03*
X0125495Y0083114D03*
X0118094Y0083114D03*
X0118094Y0092956D03*
X0125495Y0092956D03*
X0125495Y0102799D03*
X0118094Y0102799D03*
X0118094Y0112641D03*
X0125495Y0112641D03*
X0125495Y0063429D03*
X0118094Y0063429D03*
X0025240Y0132643D03*
X0017838Y0132643D03*
D17*
X0015685Y0022438D03*
X0022331Y0022438D03*
X0022331Y0029840D03*
X0015685Y0029839D03*
M02*
