G75*
%MOIN*%
%OFA0B0*%
%FSLAX25Y25*%
%IPPOS*%
%LPD*%
%AMOC8*
5,1,8,0,0,1.08239X$1,22.5*
%
%ADD10C,0.00600*%
%ADD11C,0.00000*%
D10*
X0004544Y0006772D02*
X0004544Y0138634D01*
X0004544Y0138799D02*
X0166421Y0138758D01*
X0166445Y0138742D02*
X0166457Y0006811D01*
X0166443Y0006813D02*
X0004544Y0006772D01*
D11*
X0053892Y0025716D02*
X0053894Y0025804D01*
X0053900Y0025892D01*
X0053910Y0025980D01*
X0053924Y0026068D01*
X0053941Y0026154D01*
X0053963Y0026240D01*
X0053988Y0026324D01*
X0054018Y0026408D01*
X0054050Y0026490D01*
X0054087Y0026570D01*
X0054127Y0026649D01*
X0054171Y0026726D01*
X0054218Y0026801D01*
X0054268Y0026873D01*
X0054322Y0026944D01*
X0054378Y0027011D01*
X0054438Y0027077D01*
X0054500Y0027139D01*
X0054566Y0027199D01*
X0054633Y0027255D01*
X0054704Y0027309D01*
X0054776Y0027359D01*
X0054851Y0027406D01*
X0054928Y0027450D01*
X0055007Y0027490D01*
X0055087Y0027527D01*
X0055169Y0027559D01*
X0055253Y0027589D01*
X0055337Y0027614D01*
X0055423Y0027636D01*
X0055509Y0027653D01*
X0055597Y0027667D01*
X0055685Y0027677D01*
X0055773Y0027683D01*
X0055861Y0027685D01*
X0055949Y0027683D01*
X0056037Y0027677D01*
X0056125Y0027667D01*
X0056213Y0027653D01*
X0056299Y0027636D01*
X0056385Y0027614D01*
X0056469Y0027589D01*
X0056553Y0027559D01*
X0056635Y0027527D01*
X0056715Y0027490D01*
X0056794Y0027450D01*
X0056871Y0027406D01*
X0056946Y0027359D01*
X0057018Y0027309D01*
X0057089Y0027255D01*
X0057156Y0027199D01*
X0057222Y0027139D01*
X0057284Y0027077D01*
X0057344Y0027011D01*
X0057400Y0026944D01*
X0057454Y0026873D01*
X0057504Y0026801D01*
X0057551Y0026726D01*
X0057595Y0026649D01*
X0057635Y0026570D01*
X0057672Y0026490D01*
X0057704Y0026408D01*
X0057734Y0026324D01*
X0057759Y0026240D01*
X0057781Y0026154D01*
X0057798Y0026068D01*
X0057812Y0025980D01*
X0057822Y0025892D01*
X0057828Y0025804D01*
X0057830Y0025716D01*
X0057828Y0025628D01*
X0057822Y0025540D01*
X0057812Y0025452D01*
X0057798Y0025364D01*
X0057781Y0025278D01*
X0057759Y0025192D01*
X0057734Y0025108D01*
X0057704Y0025024D01*
X0057672Y0024942D01*
X0057635Y0024862D01*
X0057595Y0024783D01*
X0057551Y0024706D01*
X0057504Y0024631D01*
X0057454Y0024559D01*
X0057400Y0024488D01*
X0057344Y0024421D01*
X0057284Y0024355D01*
X0057222Y0024293D01*
X0057156Y0024233D01*
X0057089Y0024177D01*
X0057018Y0024123D01*
X0056946Y0024073D01*
X0056871Y0024026D01*
X0056794Y0023982D01*
X0056715Y0023942D01*
X0056635Y0023905D01*
X0056553Y0023873D01*
X0056469Y0023843D01*
X0056385Y0023818D01*
X0056299Y0023796D01*
X0056213Y0023779D01*
X0056125Y0023765D01*
X0056037Y0023755D01*
X0055949Y0023749D01*
X0055861Y0023747D01*
X0055773Y0023749D01*
X0055685Y0023755D01*
X0055597Y0023765D01*
X0055509Y0023779D01*
X0055423Y0023796D01*
X0055337Y0023818D01*
X0055253Y0023843D01*
X0055169Y0023873D01*
X0055087Y0023905D01*
X0055007Y0023942D01*
X0054928Y0023982D01*
X0054851Y0024026D01*
X0054776Y0024073D01*
X0054704Y0024123D01*
X0054633Y0024177D01*
X0054566Y0024233D01*
X0054500Y0024293D01*
X0054438Y0024355D01*
X0054378Y0024421D01*
X0054322Y0024488D01*
X0054268Y0024559D01*
X0054218Y0024631D01*
X0054171Y0024706D01*
X0054127Y0024783D01*
X0054087Y0024862D01*
X0054050Y0024942D01*
X0054018Y0025024D01*
X0053988Y0025108D01*
X0053963Y0025192D01*
X0053941Y0025278D01*
X0053924Y0025364D01*
X0053910Y0025452D01*
X0053900Y0025540D01*
X0053894Y0025628D01*
X0053892Y0025716D01*
X0071215Y0025716D02*
X0071217Y0025804D01*
X0071223Y0025892D01*
X0071233Y0025980D01*
X0071247Y0026068D01*
X0071264Y0026154D01*
X0071286Y0026240D01*
X0071311Y0026324D01*
X0071341Y0026408D01*
X0071373Y0026490D01*
X0071410Y0026570D01*
X0071450Y0026649D01*
X0071494Y0026726D01*
X0071541Y0026801D01*
X0071591Y0026873D01*
X0071645Y0026944D01*
X0071701Y0027011D01*
X0071761Y0027077D01*
X0071823Y0027139D01*
X0071889Y0027199D01*
X0071956Y0027255D01*
X0072027Y0027309D01*
X0072099Y0027359D01*
X0072174Y0027406D01*
X0072251Y0027450D01*
X0072330Y0027490D01*
X0072410Y0027527D01*
X0072492Y0027559D01*
X0072576Y0027589D01*
X0072660Y0027614D01*
X0072746Y0027636D01*
X0072832Y0027653D01*
X0072920Y0027667D01*
X0073008Y0027677D01*
X0073096Y0027683D01*
X0073184Y0027685D01*
X0073272Y0027683D01*
X0073360Y0027677D01*
X0073448Y0027667D01*
X0073536Y0027653D01*
X0073622Y0027636D01*
X0073708Y0027614D01*
X0073792Y0027589D01*
X0073876Y0027559D01*
X0073958Y0027527D01*
X0074038Y0027490D01*
X0074117Y0027450D01*
X0074194Y0027406D01*
X0074269Y0027359D01*
X0074341Y0027309D01*
X0074412Y0027255D01*
X0074479Y0027199D01*
X0074545Y0027139D01*
X0074607Y0027077D01*
X0074667Y0027011D01*
X0074723Y0026944D01*
X0074777Y0026873D01*
X0074827Y0026801D01*
X0074874Y0026726D01*
X0074918Y0026649D01*
X0074958Y0026570D01*
X0074995Y0026490D01*
X0075027Y0026408D01*
X0075057Y0026324D01*
X0075082Y0026240D01*
X0075104Y0026154D01*
X0075121Y0026068D01*
X0075135Y0025980D01*
X0075145Y0025892D01*
X0075151Y0025804D01*
X0075153Y0025716D01*
X0075151Y0025628D01*
X0075145Y0025540D01*
X0075135Y0025452D01*
X0075121Y0025364D01*
X0075104Y0025278D01*
X0075082Y0025192D01*
X0075057Y0025108D01*
X0075027Y0025024D01*
X0074995Y0024942D01*
X0074958Y0024862D01*
X0074918Y0024783D01*
X0074874Y0024706D01*
X0074827Y0024631D01*
X0074777Y0024559D01*
X0074723Y0024488D01*
X0074667Y0024421D01*
X0074607Y0024355D01*
X0074545Y0024293D01*
X0074479Y0024233D01*
X0074412Y0024177D01*
X0074341Y0024123D01*
X0074269Y0024073D01*
X0074194Y0024026D01*
X0074117Y0023982D01*
X0074038Y0023942D01*
X0073958Y0023905D01*
X0073876Y0023873D01*
X0073792Y0023843D01*
X0073708Y0023818D01*
X0073622Y0023796D01*
X0073536Y0023779D01*
X0073448Y0023765D01*
X0073360Y0023755D01*
X0073272Y0023749D01*
X0073184Y0023747D01*
X0073096Y0023749D01*
X0073008Y0023755D01*
X0072920Y0023765D01*
X0072832Y0023779D01*
X0072746Y0023796D01*
X0072660Y0023818D01*
X0072576Y0023843D01*
X0072492Y0023873D01*
X0072410Y0023905D01*
X0072330Y0023942D01*
X0072251Y0023982D01*
X0072174Y0024026D01*
X0072099Y0024073D01*
X0072027Y0024123D01*
X0071956Y0024177D01*
X0071889Y0024233D01*
X0071823Y0024293D01*
X0071761Y0024355D01*
X0071701Y0024421D01*
X0071645Y0024488D01*
X0071591Y0024559D01*
X0071541Y0024631D01*
X0071494Y0024706D01*
X0071450Y0024783D01*
X0071410Y0024862D01*
X0071373Y0024942D01*
X0071341Y0025024D01*
X0071311Y0025108D01*
X0071286Y0025192D01*
X0071264Y0025278D01*
X0071247Y0025364D01*
X0071233Y0025452D01*
X0071223Y0025540D01*
X0071217Y0025628D01*
X0071215Y0025716D01*
M02*
