G75*
%MOIN*%
%OFA0B0*%
%FSLAX25Y25*%
%IPPOS*%
%LPD*%
%AMOC8*
5,1,8,0,0,1.08239X$1,22.5*
%
%ADD10R,0.07493X0.03359*%
%ADD11R,0.08674X0.10249*%
%ADD12R,0.02769X0.09887*%
%ADD13C,0.04737*%
%ADD14R,0.07800X0.20800*%
%ADD15R,0.05131X0.04737*%
%ADD16R,0.04737X0.05131*%
%ADD17R,0.06706X0.06706*%
%ADD18R,0.07098X0.07098*%
D10*
X0046144Y0052816D03*
X0046144Y0057816D03*
X0046144Y0062816D03*
X0046144Y0067816D03*
X0046144Y0072816D03*
X0046144Y0077816D03*
X0046144Y0082816D03*
X0046144Y0087816D03*
X0046144Y0092816D03*
X0046144Y0097816D03*
X0046144Y0102816D03*
X0046144Y0107816D03*
X0046144Y0112816D03*
X0046144Y0117816D03*
X0083782Y0117816D03*
X0083782Y0112816D03*
X0083782Y0107816D03*
X0083782Y0102816D03*
X0083782Y0097816D03*
X0083782Y0092816D03*
X0083782Y0087816D03*
X0083782Y0082816D03*
X0083782Y0077816D03*
X0083782Y0072816D03*
X0083782Y0067816D03*
X0083782Y0062816D03*
X0083782Y0057816D03*
X0083782Y0052816D03*
D11*
X0081845Y0035559D03*
X0081845Y0013905D03*
X0047199Y0013905D03*
X0047199Y0035559D03*
D12*
X0058223Y0037779D03*
X0061372Y0037779D03*
X0064522Y0037779D03*
X0067672Y0037779D03*
X0070821Y0037779D03*
D13*
X0073184Y0025716D03*
X0055861Y0025716D03*
D14*
X0020909Y0065059D03*
X0020909Y0103059D03*
D15*
X0015763Y0022836D03*
X0022090Y0022802D03*
X0022090Y0029495D03*
X0015763Y0029529D03*
X0017575Y0049978D03*
X0024268Y0049978D03*
X0024220Y0118146D03*
X0017527Y0118146D03*
D16*
X0017527Y0132331D03*
X0024220Y0132331D03*
X0094004Y0076846D03*
X0094004Y0070153D03*
X0117493Y0068236D03*
X0124186Y0068236D03*
X0124186Y0076898D03*
X0117493Y0076898D03*
X0117493Y0085559D03*
X0124186Y0085559D03*
X0124186Y0094221D03*
X0117493Y0094221D03*
X0117493Y0102882D03*
X0124186Y0102882D03*
X0124186Y0111543D03*
X0117493Y0111543D03*
X0034285Y0045844D03*
X0034285Y0039151D03*
D17*
X0139856Y0059758D03*
X0145761Y0059758D03*
X0156341Y0059758D03*
X0162246Y0059758D03*
X0162246Y0068345D03*
X0156341Y0068345D03*
X0156341Y0076980D03*
X0162246Y0076980D03*
X0162246Y0085605D03*
X0156341Y0085605D03*
X0156341Y0094252D03*
X0162246Y0094252D03*
X0162246Y0102914D03*
X0156341Y0102914D03*
X0156341Y0111727D03*
X0162246Y0111727D03*
D18*
X0097749Y0133267D03*
X0097749Y0134761D03*
X0087443Y0134761D03*
X0087443Y0133267D03*
X0077093Y0133267D03*
X0077093Y0134761D03*
X0066788Y0134761D03*
X0066788Y0133267D03*
X0056419Y0133267D03*
X0056419Y0134761D03*
X0046114Y0134761D03*
X0046114Y0133267D03*
M02*
