G75*
%MOIN*%
%OFA0B0*%
%FSLAX25Y25*%
%IPPOS*%
%LPD*%
%AMOC8*
5,1,8,0,0,1.08239X$1,22.5*
%
%ADD10R,0.06693X0.02559*%
%ADD11R,0.07874X0.09449*%
%ADD12R,0.01969X0.09087*%
%ADD13R,0.07000X0.20000*%
%ADD14R,0.04331X0.03937*%
%ADD15R,0.03937X0.04331*%
%ADD16R,0.04016X0.05512*%
%ADD17R,0.05512X0.04016*%
%ADD18R,0.05906X0.05906*%
%ADD19R,0.06298X0.06298*%
%ADD20C,0.02000*%
%ADD21C,0.01200*%
%ADD22C,0.01600*%
%ADD23C,0.01000*%
%ADD24C,0.05906*%
D10*
X0046144Y0052816D03*
X0046144Y0057816D03*
X0046144Y0062816D03*
X0046144Y0067816D03*
X0046144Y0072816D03*
X0046144Y0077816D03*
X0046144Y0082816D03*
X0046144Y0087816D03*
X0046144Y0092816D03*
X0046144Y0097816D03*
X0046144Y0102816D03*
X0046144Y0107816D03*
X0046144Y0112816D03*
X0046144Y0117816D03*
X0083782Y0117816D03*
X0083782Y0112816D03*
X0083782Y0107816D03*
X0083782Y0102816D03*
X0083782Y0097816D03*
X0083782Y0092816D03*
X0083782Y0087816D03*
X0083782Y0082816D03*
X0083782Y0077816D03*
X0083782Y0072816D03*
X0083782Y0067816D03*
X0083782Y0062816D03*
X0083782Y0057816D03*
X0083782Y0052816D03*
D11*
X0081845Y0035559D03*
X0081845Y0013905D03*
X0047199Y0013905D03*
X0047199Y0035559D03*
D12*
X0058223Y0037779D03*
X0061372Y0037779D03*
X0064522Y0037779D03*
X0067672Y0037779D03*
X0070821Y0037779D03*
D13*
X0020909Y0065059D03*
X0020909Y0103059D03*
D14*
X0024220Y0118146D03*
X0017527Y0118146D03*
X0017575Y0049978D03*
X0024268Y0049978D03*
D15*
X0034285Y0045844D03*
X0034285Y0039151D03*
X0094004Y0070153D03*
X0094004Y0076846D03*
D16*
X0118094Y0073271D03*
X0125495Y0073271D03*
X0125495Y0083114D03*
X0118094Y0083114D03*
X0118094Y0092956D03*
X0125495Y0092956D03*
X0125495Y0102799D03*
X0118094Y0102799D03*
X0118094Y0112641D03*
X0125495Y0112641D03*
X0125495Y0063429D03*
X0118094Y0063429D03*
X0025240Y0132643D03*
X0017838Y0132643D03*
D17*
X0015685Y0029839D03*
X0022331Y0029840D03*
X0022331Y0022438D03*
X0015685Y0022438D03*
D18*
X0138586Y0053596D03*
X0144491Y0053596D03*
X0157096Y0053573D03*
X0163001Y0053573D03*
X0163001Y0063416D03*
X0157096Y0063416D03*
X0157096Y0073258D03*
X0163001Y0073258D03*
X0163001Y0083101D03*
X0157096Y0083101D03*
X0157096Y0092943D03*
X0163001Y0092943D03*
X0163001Y0102786D03*
X0157096Y0102786D03*
X0157096Y0112628D03*
X0163001Y0112628D03*
D19*
X0095689Y0133254D03*
X0095689Y0134748D03*
X0085847Y0134748D03*
X0085847Y0133254D03*
X0076004Y0133254D03*
X0076004Y0134748D03*
X0066162Y0134748D03*
X0066162Y0133254D03*
X0056319Y0133254D03*
X0056319Y0134748D03*
X0046477Y0134748D03*
X0046477Y0133254D03*
D20*
X0056521Y0133096D02*
X0056521Y0120498D01*
X0058096Y0118923D01*
X0065183Y0111836D01*
X0065183Y0088153D01*
X0075505Y0077830D01*
X0075467Y0077829D02*
X0081931Y0077829D01*
X0085458Y0077830D02*
X0094120Y0077781D01*
X0075467Y0077829D02*
X0058274Y0060636D01*
X0058274Y0057692D01*
X0058293Y0057824D02*
X0047365Y0057824D01*
X0044513Y0052781D02*
X0036639Y0052781D01*
X0034080Y0050222D01*
X0034080Y0045301D01*
X0058293Y0040773D02*
X0058293Y0057824D01*
X0045184Y0072877D02*
X0023254Y0072860D01*
X0031915Y0077781D02*
X0022663Y0087033D01*
X0022663Y0094907D01*
X0031915Y0077781D02*
X0044513Y0077781D01*
D21*
X0005944Y0137399D02*
X0005944Y0008172D01*
X0042564Y0008181D01*
X0042062Y0008684D01*
X0042062Y0019127D01*
X0042765Y0019829D01*
X0051633Y0019829D01*
X0052336Y0019127D01*
X0052336Y0008684D01*
X0051836Y0008184D01*
X0077201Y0008190D01*
X0076708Y0008684D01*
X0076708Y0019127D01*
X0077411Y0019829D01*
X0086279Y0019829D01*
X0086982Y0019127D01*
X0086982Y0008684D01*
X0086491Y0008193D01*
X0165057Y0008213D01*
X0165053Y0049421D01*
X0153647Y0049421D01*
X0152944Y0050124D01*
X0152944Y0057023D01*
X0153647Y0057726D01*
X0165052Y0057726D01*
X0165052Y0059263D01*
X0153647Y0059263D01*
X0152944Y0059966D01*
X0152944Y0061439D01*
X0128703Y0061439D01*
X0128703Y0060176D01*
X0128000Y0059473D01*
X0122990Y0059473D01*
X0122287Y0060176D01*
X0122287Y0066682D01*
X0122990Y0067385D01*
X0128000Y0067385D01*
X0128703Y0066682D01*
X0128703Y0065439D01*
X0152944Y0065439D01*
X0152944Y0066866D01*
X0153647Y0067569D01*
X0165051Y0067569D01*
X0165051Y0069106D01*
X0153647Y0069106D01*
X0152944Y0069809D01*
X0152944Y0071257D01*
X0128703Y0071257D01*
X0128703Y0070018D01*
X0128000Y0069315D01*
X0122990Y0069315D01*
X0122287Y0070018D01*
X0122287Y0076244D01*
X0121302Y0076244D01*
X0121302Y0070018D01*
X0120599Y0069315D01*
X0115589Y0069315D01*
X0114886Y0070018D01*
X0114886Y0071247D01*
X0112540Y0071247D01*
X0111369Y0072418D01*
X0111369Y0072418D01*
X0104751Y0079036D01*
X0104751Y0083840D01*
X0102828Y0085763D01*
X0088051Y0085763D01*
X0087625Y0085337D01*
X0079938Y0085337D01*
X0079235Y0086040D01*
X0079235Y0089593D01*
X0079938Y0090296D01*
X0087312Y0090296D01*
X0087271Y0090337D01*
X0079938Y0090337D01*
X0079235Y0091040D01*
X0079235Y0094593D01*
X0079938Y0095296D01*
X0087625Y0095296D01*
X0088232Y0094690D01*
X0088575Y0094690D01*
X0090682Y0092582D01*
X0103159Y0092582D01*
X0099971Y0095779D01*
X0088068Y0095779D01*
X0087625Y0095337D01*
X0079938Y0095337D01*
X0079235Y0096040D01*
X0079235Y0099593D01*
X0079938Y0100296D01*
X0087625Y0100296D01*
X0088142Y0099779D01*
X0099974Y0099779D01*
X0099975Y0099780D01*
X0100799Y0099779D01*
X0101629Y0099779D01*
X0101630Y0099778D01*
X0101632Y0099778D01*
X0102213Y0099195D01*
X0102801Y0098607D01*
X0102801Y0098606D01*
X0114946Y0086427D01*
X0115589Y0087070D01*
X0120599Y0087070D01*
X0121302Y0086367D01*
X0121302Y0080244D01*
X0122287Y0080244D01*
X0122287Y0086367D01*
X0122990Y0087070D01*
X0128000Y0087070D01*
X0128703Y0086367D01*
X0128703Y0085175D01*
X0131889Y0085175D01*
X0140442Y0093727D01*
X0141613Y0094899D01*
X0152944Y0094899D01*
X0152944Y0096393D01*
X0153647Y0097096D01*
X0165049Y0097096D01*
X0165049Y0098633D01*
X0153647Y0098633D01*
X0152944Y0099336D01*
X0152944Y0100709D01*
X0139201Y0100709D01*
X0129520Y0091027D01*
X0128703Y0091027D01*
X0128703Y0089703D01*
X0128000Y0089000D01*
X0122990Y0089000D01*
X0122287Y0089703D01*
X0122287Y0096209D01*
X0122990Y0096912D01*
X0128000Y0096912D01*
X0128703Y0096209D01*
X0128703Y0095868D01*
X0136373Y0103537D01*
X0137544Y0104709D01*
X0152944Y0104709D01*
X0152944Y0106236D01*
X0153647Y0106939D01*
X0165048Y0106939D01*
X0165048Y0108476D01*
X0153647Y0108476D01*
X0152944Y0109179D01*
X0152944Y0110727D01*
X0128703Y0110727D01*
X0128703Y0109388D01*
X0128000Y0108685D01*
X0122990Y0108685D01*
X0122287Y0109388D01*
X0122287Y0115894D01*
X0122990Y0116597D01*
X0128000Y0116597D01*
X0128703Y0115894D01*
X0128703Y0114727D01*
X0152944Y0114727D01*
X0152944Y0116078D01*
X0153647Y0116781D01*
X0165047Y0116781D01*
X0165045Y0137359D01*
X0100038Y0137375D01*
X0100038Y0129608D01*
X0099335Y0128905D01*
X0092043Y0128905D01*
X0091340Y0129608D01*
X0091340Y0137377D01*
X0090195Y0137378D01*
X0090195Y0129608D01*
X0089492Y0128905D01*
X0088013Y0128905D01*
X0088013Y0126283D01*
X0091907Y0122390D01*
X0092576Y0121720D01*
X0092576Y0121720D01*
X0092576Y0121720D01*
X0092576Y0120883D01*
X0092576Y0114821D01*
X0114886Y0114820D01*
X0114886Y0115894D01*
X0115589Y0116597D01*
X0120599Y0116597D01*
X0121302Y0115894D01*
X0121302Y0109388D01*
X0120599Y0108685D01*
X0115589Y0108685D01*
X0114886Y0109388D01*
X0114886Y0110820D01*
X0091405Y0110821D01*
X0091405Y0110820D01*
X0088109Y0110820D01*
X0087625Y0110337D01*
X0079938Y0110337D01*
X0079235Y0111040D01*
X0079235Y0114593D01*
X0079938Y0115296D01*
X0087625Y0115296D01*
X0088101Y0114820D01*
X0088576Y0114820D01*
X0088576Y0120063D01*
X0084693Y0123947D01*
X0084013Y0124626D01*
X0084013Y0124626D01*
X0084013Y0124626D01*
X0084013Y0125446D01*
X0084013Y0128905D01*
X0082201Y0128905D01*
X0081498Y0129608D01*
X0081498Y0137380D01*
X0080353Y0137380D01*
X0080353Y0129608D01*
X0079650Y0128905D01*
X0078105Y0128905D01*
X0078105Y0121470D01*
X0079727Y0120084D01*
X0079938Y0120296D01*
X0087625Y0120296D01*
X0088328Y0119593D01*
X0088328Y0116040D01*
X0087625Y0115337D01*
X0079938Y0115337D01*
X0079337Y0115939D01*
X0079237Y0115939D01*
X0078490Y0115880D01*
X0078421Y0115939D01*
X0078331Y0115939D01*
X0077800Y0116469D01*
X0075367Y0118548D01*
X0075277Y0118548D01*
X0074746Y0119079D01*
X0074176Y0119566D01*
X0074169Y0119656D01*
X0074105Y0119720D01*
X0074105Y0120470D01*
X0074047Y0121218D01*
X0074105Y0121286D01*
X0074105Y0128905D01*
X0072358Y0128905D01*
X0071655Y0129608D01*
X0071655Y0137382D01*
X0070510Y0137383D01*
X0070510Y0129608D01*
X0069807Y0128905D01*
X0062516Y0128905D01*
X0061813Y0129608D01*
X0061813Y0137385D01*
X0060668Y0137385D01*
X0060668Y0129608D01*
X0059965Y0128905D01*
X0058721Y0128905D01*
X0058721Y0121409D01*
X0060296Y0119834D01*
X0067383Y0112747D01*
X0067383Y0089064D01*
X0076418Y0080029D01*
X0079671Y0080029D01*
X0079938Y0080296D01*
X0087625Y0080296D01*
X0087905Y0080016D01*
X0091324Y0079997D01*
X0091539Y0080211D01*
X0095956Y0080211D01*
X0095348Y0080819D01*
X0088108Y0080819D01*
X0087625Y0080337D01*
X0079938Y0080337D01*
X0079235Y0081040D01*
X0079235Y0084593D01*
X0079938Y0085296D01*
X0087625Y0085296D01*
X0088102Y0084819D01*
X0097004Y0084819D01*
X0099575Y0082249D01*
X0100746Y0081077D01*
X0100746Y0078456D01*
X0114020Y0065181D01*
X0114886Y0065181D01*
X0114886Y0066682D01*
X0115589Y0067385D01*
X0120599Y0067385D01*
X0121302Y0066682D01*
X0121302Y0060176D01*
X0120599Y0059473D01*
X0115589Y0059473D01*
X0114886Y0060176D01*
X0114886Y0061181D01*
X0112364Y0061181D01*
X0111192Y0062353D01*
X0097173Y0076372D01*
X0097173Y0074183D01*
X0096489Y0073499D01*
X0097173Y0072815D01*
X0097173Y0067491D01*
X0096470Y0066788D01*
X0091539Y0066788D01*
X0090836Y0067491D01*
X0090836Y0072815D01*
X0091520Y0073499D01*
X0090836Y0074183D01*
X0090836Y0075600D01*
X0087905Y0075616D01*
X0087625Y0075337D01*
X0079938Y0075337D01*
X0079646Y0075629D01*
X0076378Y0075629D01*
X0060474Y0059725D01*
X0060474Y0058754D01*
X0060493Y0058736D01*
X0060493Y0049542D01*
X0061214Y0050263D01*
X0062386Y0051435D01*
X0079235Y0051435D01*
X0079235Y0054593D01*
X0079938Y0055296D01*
X0087625Y0055296D01*
X0088140Y0054781D01*
X0088701Y0054781D01*
X0087885Y0055597D01*
X0087625Y0055337D01*
X0079938Y0055337D01*
X0079235Y0056040D01*
X0079235Y0059593D01*
X0079938Y0060296D01*
X0087625Y0060296D01*
X0088219Y0059702D01*
X0089436Y0059702D01*
X0090608Y0058531D01*
X0093954Y0055184D01*
X0093954Y0047819D01*
X0092783Y0046647D01*
X0090617Y0044482D01*
X0066995Y0044482D01*
X0066537Y0044023D01*
X0066537Y0043522D01*
X0069153Y0043522D01*
X0069247Y0043429D01*
X0069340Y0043522D01*
X0072303Y0043522D01*
X0073006Y0042819D01*
X0073006Y0032739D01*
X0072303Y0032036D01*
X0069340Y0032036D01*
X0069247Y0032129D01*
X0069153Y0032036D01*
X0066190Y0032036D01*
X0066097Y0032129D01*
X0066003Y0032036D01*
X0063041Y0032036D01*
X0062947Y0032129D01*
X0062854Y0032036D01*
X0059891Y0032036D01*
X0059798Y0032129D01*
X0059704Y0032036D01*
X0056742Y0032036D01*
X0056039Y0032739D01*
X0056039Y0042819D01*
X0056093Y0042874D01*
X0056093Y0055624D01*
X0050275Y0055624D01*
X0049988Y0055337D01*
X0042301Y0055337D01*
X0041631Y0056006D01*
X0037882Y0056006D01*
X0036857Y0054981D01*
X0041986Y0054981D01*
X0042301Y0055296D01*
X0049988Y0055296D01*
X0050691Y0054593D01*
X0050691Y0051040D01*
X0049988Y0050337D01*
X0042301Y0050337D01*
X0042056Y0050581D01*
X0037551Y0050581D01*
X0036280Y0049311D01*
X0036280Y0049210D01*
X0036751Y0049210D01*
X0037453Y0048507D01*
X0037453Y0043182D01*
X0036769Y0042498D01*
X0037453Y0041814D01*
X0037453Y0036489D01*
X0036751Y0035786D01*
X0031819Y0035786D01*
X0031116Y0036489D01*
X0031116Y0041814D01*
X0031801Y0042498D01*
X0031116Y0043182D01*
X0031116Y0048507D01*
X0031819Y0049210D01*
X0031880Y0049210D01*
X0031880Y0050004D01*
X0029581Y0047705D01*
X0029581Y0045539D01*
X0023676Y0039634D01*
X0023676Y0033048D01*
X0025584Y0033048D01*
X0026287Y0032345D01*
X0026287Y0027335D01*
X0025584Y0026632D01*
X0022738Y0026632D01*
X0023630Y0025646D01*
X0025584Y0025646D01*
X0026287Y0024943D01*
X0026287Y0019933D01*
X0025584Y0019230D01*
X0019078Y0019230D01*
X0019008Y0019300D01*
X0018938Y0019230D01*
X0012432Y0019230D01*
X0011729Y0019933D01*
X0011729Y0024943D01*
X0012432Y0025646D01*
X0014379Y0025646D01*
X0013973Y0026051D01*
X0013973Y0026632D01*
X0012432Y0026632D01*
X0011729Y0027335D01*
X0011729Y0032344D01*
X0012432Y0033047D01*
X0018938Y0033047D01*
X0019008Y0032977D01*
X0019078Y0033048D01*
X0020076Y0033048D01*
X0020076Y0041125D01*
X0021130Y0042180D01*
X0025760Y0046810D01*
X0021606Y0046810D01*
X0020922Y0047494D01*
X0020238Y0046810D01*
X0014913Y0046810D01*
X0014210Y0047513D01*
X0014210Y0052444D01*
X0014913Y0053147D01*
X0020238Y0053147D01*
X0020922Y0052463D01*
X0021254Y0052794D01*
X0021254Y0053859D01*
X0016911Y0053859D01*
X0016209Y0054562D01*
X0016209Y0075556D01*
X0016911Y0076259D01*
X0024906Y0076259D01*
X0025609Y0075556D01*
X0025609Y0075062D01*
X0042080Y0075075D01*
X0042301Y0075296D01*
X0049988Y0075296D01*
X0050691Y0074593D01*
X0050691Y0071040D01*
X0049988Y0070337D01*
X0042301Y0070337D01*
X0041963Y0070675D01*
X0025609Y0070662D01*
X0025609Y0054562D01*
X0025254Y0054207D01*
X0025254Y0053147D01*
X0026931Y0053147D01*
X0027634Y0052444D01*
X0027634Y0050849D01*
X0036391Y0059606D01*
X0041611Y0059606D01*
X0042301Y0060296D01*
X0049988Y0060296D01*
X0050259Y0060024D01*
X0056074Y0060024D01*
X0056074Y0061548D01*
X0072376Y0077849D01*
X0064271Y0085953D01*
X0062983Y0087242D01*
X0062983Y0110925D01*
X0057813Y0116094D01*
X0056275Y0114556D01*
X0056275Y0114556D01*
X0055221Y0113502D01*
X0050691Y0113502D01*
X0050691Y0111040D01*
X0049988Y0110337D01*
X0042301Y0110337D01*
X0041598Y0111040D01*
X0041598Y0113502D01*
X0041483Y0113502D01*
X0040815Y0114170D01*
X0039761Y0115224D01*
X0039761Y0119748D01*
X0032922Y0126533D01*
X0022190Y0126533D01*
X0022180Y0126524D01*
X0021447Y0126533D01*
X0020713Y0126533D01*
X0020703Y0126543D01*
X0020689Y0126543D01*
X0020178Y0127069D01*
X0019658Y0127588D01*
X0019658Y0127602D01*
X0018601Y0128687D01*
X0015333Y0128687D01*
X0014630Y0129390D01*
X0014630Y0135896D01*
X0015333Y0136599D01*
X0020343Y0136599D01*
X0021046Y0135896D01*
X0021046Y0131336D01*
X0022032Y0130324D01*
X0022032Y0135896D01*
X0022735Y0136599D01*
X0027745Y0136599D01*
X0028447Y0135896D01*
X0028447Y0133912D01*
X0042128Y0133912D01*
X0042128Y0137390D01*
X0005944Y0137399D01*
X0005944Y0136962D02*
X0042128Y0136962D01*
X0042128Y0135764D02*
X0028447Y0135764D01*
X0028447Y0134565D02*
X0042128Y0134565D01*
X0044710Y0132112D02*
X0025780Y0132112D01*
X0028447Y0130312D02*
X0042128Y0130312D01*
X0042128Y0129608D01*
X0042831Y0128905D01*
X0044288Y0128905D01*
X0044288Y0120296D01*
X0043361Y0120296D01*
X0043361Y0120502D01*
X0043361Y0121243D01*
X0043358Y0121246D01*
X0043358Y0121250D01*
X0042831Y0121773D01*
X0042306Y0122298D01*
X0042302Y0122298D01*
X0034933Y0129609D01*
X0034409Y0130133D01*
X0034404Y0130133D01*
X0034402Y0130136D01*
X0033659Y0130133D01*
X0028447Y0130133D01*
X0028447Y0130312D01*
X0029454Y0130426D02*
X0041618Y0130426D01*
X0042128Y0129771D02*
X0034771Y0129771D01*
X0035978Y0128573D02*
X0044288Y0128573D01*
X0044288Y0127374D02*
X0037186Y0127374D01*
X0038394Y0126176D02*
X0044288Y0126176D01*
X0044288Y0124977D02*
X0039602Y0124977D01*
X0040809Y0123779D02*
X0044288Y0123779D01*
X0044288Y0122580D02*
X0042017Y0122580D01*
X0043225Y0121381D02*
X0044288Y0121381D01*
X0041561Y0120498D02*
X0033663Y0128333D01*
X0021458Y0128333D01*
X0019120Y0130734D01*
X0018712Y0128573D02*
X0005944Y0128573D01*
X0005944Y0129771D02*
X0014630Y0129771D01*
X0014630Y0130970D02*
X0005944Y0130970D01*
X0005944Y0132168D02*
X0014630Y0132168D01*
X0014630Y0133367D02*
X0005944Y0133367D01*
X0005944Y0134565D02*
X0014630Y0134565D01*
X0014630Y0135764D02*
X0005944Y0135764D01*
X0005944Y0127374D02*
X0019872Y0127374D01*
X0021403Y0130970D02*
X0022032Y0130970D01*
X0022032Y0132168D02*
X0021046Y0132168D01*
X0021046Y0133367D02*
X0022032Y0133367D01*
X0022032Y0134565D02*
X0021046Y0134565D01*
X0021046Y0135764D02*
X0022032Y0135764D01*
X0033282Y0126176D02*
X0005944Y0126176D01*
X0005944Y0124977D02*
X0034490Y0124977D01*
X0035698Y0123779D02*
X0005944Y0123779D01*
X0005944Y0122580D02*
X0036906Y0122580D01*
X0038114Y0121381D02*
X0005944Y0121381D01*
X0005944Y0120183D02*
X0014162Y0120183D01*
X0014162Y0120612D02*
X0014162Y0115681D01*
X0014865Y0114978D01*
X0020190Y0114978D01*
X0020874Y0115662D01*
X0021450Y0115085D01*
X0021450Y0114259D01*
X0016911Y0114259D01*
X0016209Y0113556D01*
X0016209Y0092562D01*
X0016911Y0091859D01*
X0020463Y0091859D01*
X0020463Y0086122D01*
X0021752Y0084833D01*
X0031004Y0075581D01*
X0042056Y0075581D01*
X0042301Y0075337D01*
X0049988Y0075337D01*
X0050691Y0076040D01*
X0050691Y0079593D01*
X0049988Y0080296D01*
X0042301Y0080296D01*
X0041986Y0079981D01*
X0032826Y0079981D01*
X0024863Y0087944D01*
X0024863Y0091859D01*
X0024906Y0091859D01*
X0025609Y0092562D01*
X0025609Y0113556D01*
X0025450Y0113714D01*
X0025450Y0114978D01*
X0026883Y0114978D01*
X0027586Y0115681D01*
X0027586Y0120612D01*
X0026883Y0121315D01*
X0021558Y0121315D01*
X0020874Y0120631D01*
X0020190Y0121315D01*
X0014865Y0121315D01*
X0014162Y0120612D01*
X0014162Y0118984D02*
X0005944Y0118984D01*
X0005944Y0117786D02*
X0014162Y0117786D01*
X0013608Y0118332D02*
X0017545Y0118332D01*
X0017545Y0115183D01*
X0016843Y0114190D02*
X0005944Y0114190D01*
X0005944Y0112992D02*
X0016209Y0112992D01*
X0016209Y0111793D02*
X0005944Y0111793D01*
X0005944Y0110595D02*
X0016209Y0110595D01*
X0016209Y0109396D02*
X0005944Y0109396D01*
X0005944Y0108198D02*
X0016209Y0108198D01*
X0016209Y0106999D02*
X0005944Y0106999D01*
X0005944Y0105801D02*
X0016209Y0105801D01*
X0016209Y0104602D02*
X0005944Y0104602D01*
X0005944Y0103404D02*
X0016209Y0103404D01*
X0016209Y0102205D02*
X0005944Y0102205D01*
X0005944Y0101007D02*
X0016209Y0101007D01*
X0016209Y0099808D02*
X0005944Y0099808D01*
X0005944Y0098610D02*
X0016209Y0098610D01*
X0016209Y0097411D02*
X0005944Y0097411D01*
X0005944Y0096213D02*
X0016209Y0096213D01*
X0016209Y0095014D02*
X0005944Y0095014D01*
X0005944Y0093816D02*
X0016209Y0093816D01*
X0016209Y0092617D02*
X0005944Y0092617D01*
X0005944Y0091419D02*
X0020463Y0091419D01*
X0020463Y0090220D02*
X0005944Y0090220D01*
X0005944Y0089022D02*
X0020463Y0089022D01*
X0020463Y0087823D02*
X0005944Y0087823D01*
X0005944Y0086625D02*
X0020463Y0086625D01*
X0021159Y0085426D02*
X0005944Y0085426D01*
X0005944Y0084228D02*
X0022357Y0084228D01*
X0023556Y0083029D02*
X0005944Y0083029D01*
X0005944Y0081831D02*
X0024754Y0081831D01*
X0025953Y0080632D02*
X0005944Y0080632D01*
X0005944Y0079434D02*
X0027151Y0079434D01*
X0028350Y0078235D02*
X0005944Y0078235D01*
X0005944Y0077037D02*
X0029548Y0077037D01*
X0030747Y0075838D02*
X0025326Y0075838D01*
X0025609Y0069846D02*
X0041850Y0069846D01*
X0041598Y0069593D02*
X0041598Y0066040D01*
X0042301Y0065337D01*
X0049988Y0065337D01*
X0050691Y0066040D01*
X0050691Y0069593D01*
X0049988Y0070296D01*
X0042301Y0070296D01*
X0041598Y0069593D01*
X0041598Y0068647D02*
X0025609Y0068647D01*
X0025609Y0067448D02*
X0041598Y0067448D01*
X0041598Y0066250D02*
X0025609Y0066250D01*
X0025609Y0065051D02*
X0042056Y0065051D01*
X0042301Y0065296D02*
X0041598Y0064593D01*
X0041598Y0061040D01*
X0042301Y0060337D01*
X0049988Y0060337D01*
X0050691Y0061040D01*
X0050691Y0064593D01*
X0049988Y0065296D01*
X0042301Y0065296D01*
X0041598Y0063853D02*
X0025609Y0063853D01*
X0025609Y0062654D02*
X0041598Y0062654D01*
X0041598Y0061456D02*
X0025609Y0061456D01*
X0025609Y0060257D02*
X0042262Y0060257D01*
X0044253Y0057806D02*
X0037137Y0057806D01*
X0027781Y0048450D01*
X0027781Y0046285D01*
X0021876Y0040380D01*
X0021876Y0029356D01*
X0026287Y0029096D02*
X0165055Y0029096D01*
X0165055Y0027898D02*
X0075341Y0027898D01*
X0074922Y0028317D02*
X0075785Y0027454D01*
X0076252Y0026326D01*
X0076252Y0025106D01*
X0075785Y0023978D01*
X0074922Y0023115D01*
X0073794Y0022648D01*
X0072573Y0022648D01*
X0071445Y0023115D01*
X0070582Y0023978D01*
X0070115Y0025106D01*
X0070115Y0026326D01*
X0070582Y0027454D01*
X0071445Y0028317D01*
X0072573Y0028785D01*
X0073794Y0028785D01*
X0074922Y0028317D01*
X0076098Y0026699D02*
X0165055Y0026699D01*
X0165055Y0025501D02*
X0076252Y0025501D01*
X0075919Y0024302D02*
X0165055Y0024302D01*
X0165055Y0023104D02*
X0074895Y0023104D01*
X0071472Y0023104D02*
X0057572Y0023104D01*
X0057599Y0023115D02*
X0058462Y0023978D01*
X0058929Y0025106D01*
X0058929Y0026326D01*
X0058462Y0027454D01*
X0057599Y0028317D01*
X0056471Y0028785D01*
X0055250Y0028785D01*
X0054123Y0028317D01*
X0053259Y0027454D01*
X0052792Y0026326D01*
X0052792Y0025106D01*
X0053259Y0023978D01*
X0054123Y0023115D01*
X0055250Y0022648D01*
X0056471Y0022648D01*
X0057599Y0023115D01*
X0058596Y0024302D02*
X0070448Y0024302D01*
X0070115Y0025501D02*
X0058929Y0025501D01*
X0058775Y0026699D02*
X0070269Y0026699D01*
X0071026Y0027898D02*
X0058019Y0027898D01*
X0053703Y0027898D02*
X0026287Y0027898D01*
X0025651Y0026699D02*
X0052947Y0026699D01*
X0052792Y0025501D02*
X0025730Y0025501D01*
X0026287Y0024302D02*
X0053125Y0024302D01*
X0054149Y0023104D02*
X0026287Y0023104D01*
X0026287Y0021905D02*
X0165056Y0021905D01*
X0165056Y0020707D02*
X0026287Y0020707D01*
X0025862Y0019508D02*
X0042444Y0019508D01*
X0042062Y0018310D02*
X0005944Y0018310D01*
X0005944Y0019508D02*
X0012154Y0019508D01*
X0011729Y0020707D02*
X0005944Y0020707D01*
X0005944Y0021905D02*
X0011729Y0021905D01*
X0012033Y0022860D02*
X0015773Y0022860D01*
X0015773Y0019513D01*
X0011729Y0023104D02*
X0005944Y0023104D01*
X0005944Y0024302D02*
X0011729Y0024302D01*
X0012287Y0025501D02*
X0005944Y0025501D01*
X0005944Y0026699D02*
X0012365Y0026699D01*
X0011729Y0027898D02*
X0005944Y0027898D01*
X0005944Y0029096D02*
X0011729Y0029096D01*
X0011729Y0030295D02*
X0005944Y0030295D01*
X0005944Y0031493D02*
X0011729Y0031493D01*
X0012076Y0032692D02*
X0005944Y0032692D01*
X0005944Y0033890D02*
X0020076Y0033890D01*
X0020076Y0035089D02*
X0005944Y0035089D01*
X0005944Y0036287D02*
X0020076Y0036287D01*
X0020076Y0037486D02*
X0005944Y0037486D01*
X0005944Y0038684D02*
X0020076Y0038684D01*
X0020076Y0039883D02*
X0005944Y0039883D01*
X0005944Y0041081D02*
X0020076Y0041081D01*
X0021230Y0042280D02*
X0005944Y0042280D01*
X0005944Y0043478D02*
X0022429Y0043478D01*
X0023627Y0044677D02*
X0005944Y0044677D01*
X0005944Y0045875D02*
X0024826Y0045875D01*
X0027520Y0043478D02*
X0031116Y0043478D01*
X0031116Y0044677D02*
X0028718Y0044677D01*
X0029581Y0045875D02*
X0031116Y0045875D01*
X0031116Y0047074D02*
X0029581Y0047074D01*
X0030149Y0048272D02*
X0031116Y0048272D01*
X0031347Y0049471D02*
X0031880Y0049471D01*
X0028653Y0051868D02*
X0027634Y0051868D01*
X0027011Y0053066D02*
X0029851Y0053066D01*
X0031050Y0054265D02*
X0025312Y0054265D01*
X0025609Y0055463D02*
X0032249Y0055463D01*
X0033447Y0056662D02*
X0025609Y0056662D01*
X0025609Y0057860D02*
X0034646Y0057860D01*
X0035844Y0059059D02*
X0025609Y0059059D01*
X0021254Y0053066D02*
X0020318Y0053066D01*
X0017348Y0053175D02*
X0017348Y0049828D01*
X0017348Y0046679D01*
X0020502Y0047074D02*
X0021342Y0047074D01*
X0017545Y0049828D02*
X0017348Y0049828D01*
X0013411Y0049828D01*
X0014210Y0049471D02*
X0005944Y0049471D01*
X0005944Y0050669D02*
X0014210Y0050669D01*
X0014210Y0051868D02*
X0005944Y0051868D01*
X0005944Y0053066D02*
X0014833Y0053066D01*
X0016505Y0054265D02*
X0005944Y0054265D01*
X0005944Y0055463D02*
X0016209Y0055463D01*
X0016209Y0056662D02*
X0005944Y0056662D01*
X0005944Y0057860D02*
X0016209Y0057860D01*
X0016209Y0059059D02*
X0005944Y0059059D01*
X0005944Y0060257D02*
X0016209Y0060257D01*
X0016209Y0061456D02*
X0005944Y0061456D01*
X0005944Y0062654D02*
X0016209Y0062654D01*
X0016209Y0063853D02*
X0005944Y0063853D01*
X0005944Y0065051D02*
X0016209Y0065051D01*
X0016209Y0066250D02*
X0005944Y0066250D01*
X0005944Y0067448D02*
X0016209Y0067448D01*
X0016209Y0068647D02*
X0005944Y0068647D01*
X0005944Y0069846D02*
X0016209Y0069846D01*
X0016209Y0071044D02*
X0005944Y0071044D01*
X0005944Y0072243D02*
X0016209Y0072243D01*
X0016209Y0073441D02*
X0005944Y0073441D01*
X0005944Y0074640D02*
X0016209Y0074640D01*
X0016491Y0075838D02*
X0005944Y0075838D01*
X0024984Y0087823D02*
X0041598Y0087823D01*
X0041598Y0086625D02*
X0026183Y0086625D01*
X0027381Y0085426D02*
X0042211Y0085426D01*
X0042301Y0085337D02*
X0041598Y0086040D01*
X0041598Y0089593D01*
X0042301Y0090296D01*
X0049988Y0090296D01*
X0050691Y0089593D01*
X0050691Y0086040D01*
X0049988Y0085337D01*
X0042301Y0085337D01*
X0042301Y0085296D02*
X0041598Y0084593D01*
X0041598Y0081040D01*
X0042301Y0080337D01*
X0049988Y0080337D01*
X0050691Y0081040D01*
X0050691Y0084593D01*
X0049988Y0085296D01*
X0042301Y0085296D01*
X0041598Y0084228D02*
X0028580Y0084228D01*
X0029778Y0083029D02*
X0041598Y0083029D01*
X0041598Y0081831D02*
X0030977Y0081831D01*
X0032175Y0080632D02*
X0042005Y0080632D01*
X0050283Y0080632D02*
X0069592Y0080632D01*
X0068394Y0081831D02*
X0050691Y0081831D01*
X0050691Y0083029D02*
X0067195Y0083029D01*
X0065997Y0084228D02*
X0050691Y0084228D01*
X0050077Y0085426D02*
X0064798Y0085426D01*
X0063600Y0086625D02*
X0050691Y0086625D01*
X0050691Y0087823D02*
X0062983Y0087823D01*
X0062983Y0089022D02*
X0050691Y0089022D01*
X0050063Y0090220D02*
X0062983Y0090220D01*
X0062983Y0091419D02*
X0050691Y0091419D01*
X0050691Y0091040D02*
X0050691Y0094593D01*
X0049988Y0095296D01*
X0042301Y0095296D01*
X0041598Y0094593D01*
X0041598Y0091040D01*
X0042301Y0090337D01*
X0049988Y0090337D01*
X0050691Y0091040D01*
X0050691Y0092617D02*
X0062983Y0092617D01*
X0062983Y0093816D02*
X0050691Y0093816D01*
X0050269Y0095014D02*
X0062983Y0095014D01*
X0062983Y0096213D02*
X0050691Y0096213D01*
X0050691Y0096040D02*
X0050691Y0099593D01*
X0049988Y0100296D01*
X0042301Y0100296D01*
X0041598Y0099593D01*
X0041598Y0096040D01*
X0042301Y0095337D01*
X0049988Y0095337D01*
X0050691Y0096040D01*
X0050691Y0097411D02*
X0062983Y0097411D01*
X0062983Y0098610D02*
X0050691Y0098610D01*
X0050475Y0099808D02*
X0062983Y0099808D01*
X0062983Y0101007D02*
X0050658Y0101007D01*
X0050691Y0101040D02*
X0050691Y0104593D01*
X0049988Y0105296D01*
X0042301Y0105296D01*
X0041598Y0104593D01*
X0041598Y0101040D01*
X0042301Y0100337D01*
X0049988Y0100337D01*
X0050691Y0101040D01*
X0050691Y0102205D02*
X0062983Y0102205D01*
X0062983Y0103404D02*
X0050691Y0103404D01*
X0050681Y0104602D02*
X0062983Y0104602D01*
X0062983Y0105801D02*
X0050452Y0105801D01*
X0050691Y0106040D02*
X0050691Y0109593D01*
X0049988Y0110296D01*
X0042301Y0110296D01*
X0041598Y0109593D01*
X0041598Y0106040D01*
X0042301Y0105337D01*
X0049988Y0105337D01*
X0050691Y0106040D01*
X0050691Y0106999D02*
X0062983Y0106999D01*
X0062983Y0108198D02*
X0050691Y0108198D01*
X0050691Y0109396D02*
X0062983Y0109396D01*
X0062983Y0110595D02*
X0050246Y0110595D01*
X0050691Y0111793D02*
X0062114Y0111793D01*
X0060916Y0112992D02*
X0050691Y0112992D01*
X0054475Y0115302D02*
X0042229Y0115302D01*
X0041561Y0115970D01*
X0041561Y0120498D01*
X0039322Y0120183D02*
X0027586Y0120183D01*
X0027586Y0118984D02*
X0039761Y0118984D01*
X0039761Y0117786D02*
X0027586Y0117786D01*
X0027586Y0116587D02*
X0039761Y0116587D01*
X0039761Y0115389D02*
X0027294Y0115389D01*
X0025450Y0114190D02*
X0040795Y0114190D01*
X0041598Y0112992D02*
X0025609Y0112992D01*
X0025609Y0111793D02*
X0041598Y0111793D01*
X0042042Y0110595D02*
X0025609Y0110595D01*
X0025609Y0109396D02*
X0041598Y0109396D01*
X0041598Y0108198D02*
X0025609Y0108198D01*
X0025609Y0106999D02*
X0041598Y0106999D01*
X0041837Y0105801D02*
X0025609Y0105801D01*
X0025609Y0104602D02*
X0041607Y0104602D01*
X0041598Y0103404D02*
X0025609Y0103404D01*
X0025609Y0102205D02*
X0041598Y0102205D01*
X0041631Y0101007D02*
X0025609Y0101007D01*
X0025609Y0099808D02*
X0041813Y0099808D01*
X0041598Y0098610D02*
X0025609Y0098610D01*
X0025609Y0097411D02*
X0041598Y0097411D01*
X0041598Y0096213D02*
X0025609Y0096213D01*
X0025609Y0095014D02*
X0042019Y0095014D01*
X0041598Y0093816D02*
X0025609Y0093816D01*
X0025609Y0092617D02*
X0041598Y0092617D01*
X0041598Y0091419D02*
X0024863Y0091419D01*
X0024863Y0090220D02*
X0042225Y0090220D01*
X0041598Y0089022D02*
X0024863Y0089022D01*
X0050691Y0079434D02*
X0070791Y0079434D01*
X0071989Y0078235D02*
X0050691Y0078235D01*
X0050691Y0077037D02*
X0071563Y0077037D01*
X0070365Y0075838D02*
X0050489Y0075838D01*
X0050644Y0074640D02*
X0069166Y0074640D01*
X0067968Y0073441D02*
X0050691Y0073441D01*
X0050691Y0072243D02*
X0066769Y0072243D01*
X0065571Y0071044D02*
X0050691Y0071044D01*
X0050438Y0069846D02*
X0064372Y0069846D01*
X0063174Y0068647D02*
X0050691Y0068647D01*
X0050691Y0067448D02*
X0061975Y0067448D01*
X0060777Y0066250D02*
X0050691Y0066250D01*
X0050232Y0065051D02*
X0059578Y0065051D01*
X0058379Y0063853D02*
X0050691Y0063853D01*
X0050691Y0062654D02*
X0057181Y0062654D01*
X0056074Y0061456D02*
X0050691Y0061456D01*
X0050026Y0060257D02*
X0056074Y0060257D01*
X0060474Y0059059D02*
X0079235Y0059059D01*
X0079235Y0057860D02*
X0060493Y0057860D01*
X0060493Y0056662D02*
X0079235Y0056662D01*
X0079812Y0055463D02*
X0060493Y0055463D01*
X0060493Y0054265D02*
X0079235Y0054265D01*
X0079235Y0053066D02*
X0060493Y0053066D01*
X0060493Y0051868D02*
X0079235Y0051868D01*
X0087752Y0055463D02*
X0088018Y0055463D01*
X0091278Y0057860D02*
X0093174Y0057860D01*
X0092477Y0056662D02*
X0094373Y0056662D01*
X0093675Y0055463D02*
X0095571Y0055463D01*
X0096770Y0054265D02*
X0093954Y0054265D01*
X0093954Y0053066D02*
X0097968Y0053066D01*
X0098351Y0052684D02*
X0099522Y0051512D01*
X0134434Y0051512D01*
X0134434Y0050146D01*
X0135137Y0049443D01*
X0147941Y0049443D01*
X0148644Y0050146D01*
X0148644Y0057045D01*
X0147941Y0057748D01*
X0135137Y0057748D01*
X0134434Y0057045D01*
X0134434Y0055512D01*
X0101179Y0055512D01*
X0091908Y0064783D01*
X0088138Y0064783D01*
X0087625Y0065296D01*
X0079938Y0065296D01*
X0079235Y0064593D01*
X0079235Y0061040D01*
X0079938Y0060337D01*
X0087625Y0060337D01*
X0088072Y0060783D01*
X0090251Y0060783D01*
X0098351Y0052684D01*
X0099167Y0051868D02*
X0093954Y0051868D01*
X0093954Y0050669D02*
X0134434Y0050669D01*
X0135109Y0049471D02*
X0093954Y0049471D01*
X0093954Y0048272D02*
X0165053Y0048272D01*
X0165053Y0047074D02*
X0093209Y0047074D01*
X0092011Y0045875D02*
X0165053Y0045875D01*
X0165053Y0044677D02*
X0090812Y0044677D01*
X0086982Y0040780D02*
X0086279Y0041483D01*
X0077411Y0041483D01*
X0076708Y0040780D01*
X0076708Y0030337D01*
X0077411Y0029634D01*
X0086279Y0029634D01*
X0086982Y0030337D01*
X0086982Y0040780D01*
X0086681Y0041081D02*
X0165054Y0041081D01*
X0165054Y0039883D02*
X0086982Y0039883D01*
X0086982Y0038684D02*
X0165054Y0038684D01*
X0165054Y0037486D02*
X0086982Y0037486D01*
X0086982Y0036287D02*
X0165054Y0036287D01*
X0165054Y0035089D02*
X0086982Y0035089D01*
X0088017Y0035261D02*
X0081324Y0035261D01*
X0081915Y0035065D02*
X0081915Y0028372D01*
X0086939Y0030295D02*
X0165055Y0030295D01*
X0165055Y0031493D02*
X0086982Y0031493D01*
X0086982Y0032692D02*
X0165055Y0032692D01*
X0165054Y0033890D02*
X0086982Y0033890D01*
X0082309Y0035261D02*
X0075616Y0035261D01*
X0076708Y0035089D02*
X0073006Y0035089D01*
X0073006Y0036287D02*
X0076708Y0036287D01*
X0076708Y0037486D02*
X0073006Y0037486D01*
X0073006Y0038684D02*
X0076708Y0038684D01*
X0076708Y0039883D02*
X0073006Y0039883D01*
X0073006Y0041081D02*
X0077009Y0041081D01*
X0073006Y0042280D02*
X0165054Y0042280D01*
X0165054Y0043478D02*
X0072347Y0043478D01*
X0069296Y0043478D02*
X0069197Y0043478D01*
X0061620Y0050669D02*
X0060493Y0050669D01*
X0056093Y0050669D02*
X0050320Y0050669D01*
X0050691Y0051868D02*
X0056093Y0051868D01*
X0056093Y0053066D02*
X0050691Y0053066D01*
X0050691Y0054265D02*
X0056093Y0054265D01*
X0056093Y0055463D02*
X0050114Y0055463D01*
X0042174Y0055463D02*
X0037340Y0055463D01*
X0036440Y0049471D02*
X0056093Y0049471D01*
X0056093Y0048272D02*
X0037453Y0048272D01*
X0037453Y0047074D02*
X0056093Y0047074D01*
X0056093Y0045875D02*
X0037453Y0045875D01*
X0037453Y0044677D02*
X0056093Y0044677D01*
X0056093Y0043478D02*
X0037453Y0043478D01*
X0036987Y0042280D02*
X0056039Y0042280D01*
X0056039Y0041081D02*
X0052035Y0041081D01*
X0052336Y0040780D02*
X0051633Y0041483D01*
X0042765Y0041483D01*
X0042062Y0040780D01*
X0042062Y0030337D01*
X0042765Y0029634D01*
X0051633Y0029634D01*
X0052336Y0030337D01*
X0052336Y0040780D01*
X0052336Y0039883D02*
X0056039Y0039883D01*
X0056039Y0038684D02*
X0052336Y0038684D01*
X0052336Y0037486D02*
X0056039Y0037486D01*
X0056039Y0036287D02*
X0052336Y0036287D01*
X0052336Y0035089D02*
X0056039Y0035089D01*
X0056039Y0033890D02*
X0052336Y0033890D01*
X0052336Y0032692D02*
X0056086Y0032692D01*
X0052336Y0031493D02*
X0076708Y0031493D01*
X0076708Y0032692D02*
X0072959Y0032692D01*
X0073006Y0033890D02*
X0076708Y0033890D01*
X0076750Y0030295D02*
X0052294Y0030295D01*
X0047269Y0028765D02*
X0047269Y0035458D01*
X0047269Y0035852D02*
X0047269Y0042545D01*
X0042363Y0041081D02*
X0037453Y0041081D01*
X0037453Y0039883D02*
X0042062Y0039883D01*
X0042062Y0038684D02*
X0037453Y0038684D01*
X0037230Y0039395D02*
X0034080Y0039395D01*
X0030734Y0039395D01*
X0031116Y0039883D02*
X0023924Y0039883D01*
X0023676Y0038684D02*
X0031116Y0038684D01*
X0031116Y0037486D02*
X0023676Y0037486D01*
X0023676Y0036287D02*
X0031318Y0036287D01*
X0034080Y0035458D02*
X0034080Y0039395D01*
X0034080Y0039592D01*
X0031116Y0041081D02*
X0025123Y0041081D01*
X0026321Y0042280D02*
X0031582Y0042280D01*
X0037453Y0037486D02*
X0042062Y0037486D01*
X0042062Y0036287D02*
X0037252Y0036287D01*
X0040970Y0035655D02*
X0047663Y0035655D01*
X0046679Y0035655D02*
X0053372Y0035655D01*
X0042062Y0035089D02*
X0023676Y0035089D01*
X0023676Y0033890D02*
X0042062Y0033890D01*
X0042062Y0032692D02*
X0025940Y0032692D01*
X0026287Y0031493D02*
X0042062Y0031493D01*
X0042105Y0030295D02*
X0026287Y0030295D01*
X0020713Y0026188D02*
X0022613Y0024087D01*
X0020713Y0026188D02*
X0016382Y0026188D01*
X0015773Y0026797D01*
X0015773Y0029159D01*
X0005944Y0017111D02*
X0042062Y0017111D01*
X0042062Y0015912D02*
X0005944Y0015912D01*
X0005944Y0014714D02*
X0042062Y0014714D01*
X0042062Y0013515D02*
X0005944Y0013515D01*
X0005944Y0012317D02*
X0042062Y0012317D01*
X0042062Y0011118D02*
X0005944Y0011118D01*
X0005944Y0009920D02*
X0042062Y0009920D01*
X0042062Y0008721D02*
X0005944Y0008721D01*
X0040773Y0015183D02*
X0047466Y0015183D01*
X0047072Y0015380D02*
X0047072Y0022072D01*
X0051955Y0019508D02*
X0077089Y0019508D01*
X0076708Y0018310D02*
X0052336Y0018310D01*
X0052336Y0017111D02*
X0076708Y0017111D01*
X0076708Y0015912D02*
X0052336Y0015912D01*
X0053175Y0015183D02*
X0046482Y0015183D01*
X0047072Y0014986D02*
X0047072Y0008293D01*
X0052336Y0008721D02*
X0076708Y0008721D01*
X0076708Y0009920D02*
X0052336Y0009920D01*
X0052336Y0011118D02*
X0076708Y0011118D01*
X0076708Y0012317D02*
X0052336Y0012317D01*
X0052336Y0013515D02*
X0076708Y0013515D01*
X0076708Y0014714D02*
X0052336Y0014714D01*
X0075419Y0014986D02*
X0082112Y0014986D01*
X0081128Y0014986D02*
X0087820Y0014986D01*
X0086982Y0014714D02*
X0165056Y0014714D01*
X0165056Y0015912D02*
X0086982Y0015912D01*
X0086982Y0017111D02*
X0165056Y0017111D01*
X0165056Y0018310D02*
X0086982Y0018310D01*
X0086600Y0019508D02*
X0165056Y0019508D01*
X0165056Y0013515D02*
X0086982Y0013515D01*
X0086982Y0012317D02*
X0165056Y0012317D01*
X0165056Y0011118D02*
X0086982Y0011118D01*
X0086982Y0009920D02*
X0165057Y0009920D01*
X0165057Y0008721D02*
X0086982Y0008721D01*
X0081718Y0008490D02*
X0081718Y0021876D01*
X0081915Y0035458D02*
X0081915Y0042151D01*
X0100030Y0056662D02*
X0134434Y0056662D01*
X0128703Y0060257D02*
X0152944Y0060257D01*
X0152944Y0056662D02*
X0148644Y0056662D01*
X0148644Y0055463D02*
X0152944Y0055463D01*
X0152944Y0054265D02*
X0148644Y0054265D01*
X0148644Y0053066D02*
X0152944Y0053066D01*
X0153832Y0053751D02*
X0160525Y0053751D01*
X0160131Y0053555D02*
X0160156Y0050363D01*
X0160131Y0053948D02*
X0160131Y0056601D01*
X0165052Y0057860D02*
X0098831Y0057860D01*
X0097633Y0059059D02*
X0165052Y0059059D01*
X0152944Y0066250D02*
X0128703Y0066250D01*
X0128530Y0069846D02*
X0152944Y0069846D01*
X0152944Y0071044D02*
X0128703Y0071044D01*
X0122460Y0069846D02*
X0121129Y0069846D01*
X0121302Y0071044D02*
X0122287Y0071044D01*
X0122287Y0072243D02*
X0121302Y0072243D01*
X0121302Y0073441D02*
X0122287Y0073441D01*
X0122287Y0074640D02*
X0121302Y0074640D01*
X0121302Y0075838D02*
X0122287Y0075838D01*
X0128703Y0075838D02*
X0152944Y0075838D01*
X0152944Y0075257D02*
X0128703Y0075257D01*
X0128703Y0076244D01*
X0141998Y0076244D01*
X0146795Y0081041D01*
X0152944Y0081041D01*
X0152944Y0079651D01*
X0153647Y0078948D01*
X0165050Y0078948D01*
X0165051Y0077411D01*
X0153647Y0077411D01*
X0152944Y0076708D01*
X0152944Y0075257D01*
X0153272Y0077037D02*
X0142790Y0077037D01*
X0143989Y0078235D02*
X0165050Y0078235D01*
X0153161Y0079434D02*
X0145187Y0079434D01*
X0146386Y0080632D02*
X0152944Y0080632D01*
X0152944Y0085041D02*
X0145138Y0085041D01*
X0143966Y0083869D01*
X0140341Y0080244D01*
X0128703Y0080244D01*
X0128703Y0081175D01*
X0133546Y0081175D01*
X0143270Y0090899D01*
X0152944Y0090899D01*
X0152944Y0089494D01*
X0153647Y0088791D01*
X0165050Y0088791D01*
X0165050Y0087254D01*
X0153647Y0087254D01*
X0152944Y0086551D01*
X0152944Y0085041D01*
X0152944Y0085426D02*
X0137797Y0085426D01*
X0136599Y0084228D02*
X0144324Y0084228D01*
X0143126Y0083029D02*
X0135400Y0083029D01*
X0134202Y0081831D02*
X0141927Y0081831D01*
X0140729Y0080632D02*
X0128703Y0080632D01*
X0128703Y0085426D02*
X0132140Y0085426D01*
X0133339Y0086625D02*
X0128445Y0086625D01*
X0128022Y0089022D02*
X0135736Y0089022D01*
X0136934Y0090220D02*
X0128703Y0090220D01*
X0129911Y0091419D02*
X0138133Y0091419D01*
X0139331Y0092617D02*
X0131110Y0092617D01*
X0132308Y0093816D02*
X0140530Y0093816D01*
X0135904Y0097411D02*
X0165049Y0097411D01*
X0165049Y0098610D02*
X0137102Y0098610D01*
X0138301Y0099808D02*
X0152944Y0099808D01*
X0152944Y0096213D02*
X0134705Y0096213D01*
X0133507Y0095014D02*
X0152944Y0095014D01*
X0152944Y0090220D02*
X0142591Y0090220D01*
X0141393Y0089022D02*
X0153416Y0089022D01*
X0153018Y0086625D02*
X0138996Y0086625D01*
X0140194Y0087823D02*
X0165050Y0087823D01*
X0152944Y0105801D02*
X0128703Y0105801D01*
X0128703Y0106052D02*
X0128000Y0106755D01*
X0122990Y0106755D01*
X0122287Y0106052D01*
X0122287Y0099546D01*
X0122990Y0098843D01*
X0128000Y0098843D01*
X0128703Y0099546D01*
X0128703Y0106052D01*
X0128703Y0104602D02*
X0137438Y0104602D01*
X0136239Y0103404D02*
X0128703Y0103404D01*
X0128703Y0102205D02*
X0135041Y0102205D01*
X0133842Y0101007D02*
X0128703Y0101007D01*
X0128703Y0099808D02*
X0132644Y0099808D01*
X0131445Y0098610D02*
X0112288Y0098610D01*
X0113486Y0097411D02*
X0130247Y0097411D01*
X0129048Y0096213D02*
X0128700Y0096213D01*
X0122291Y0096213D02*
X0121298Y0096213D01*
X0121302Y0096209D02*
X0120599Y0096912D01*
X0115589Y0096912D01*
X0114886Y0096209D01*
X0114886Y0096011D01*
X0106017Y0104880D01*
X0088041Y0104880D01*
X0087625Y0105296D01*
X0079938Y0105296D01*
X0079235Y0104593D01*
X0079235Y0101040D01*
X0079938Y0100337D01*
X0087625Y0100337D01*
X0088169Y0100880D01*
X0104360Y0100880D01*
X0113469Y0091771D01*
X0114641Y0090600D01*
X0114886Y0090600D01*
X0114886Y0089703D01*
X0115589Y0089000D01*
X0120599Y0089000D01*
X0121302Y0089703D01*
X0121302Y0096209D01*
X0121302Y0095014D02*
X0122287Y0095014D01*
X0122287Y0093816D02*
X0121302Y0093816D01*
X0121302Y0092617D02*
X0122287Y0092617D01*
X0122287Y0091419D02*
X0121302Y0091419D01*
X0121302Y0090220D02*
X0122287Y0090220D01*
X0122969Y0089022D02*
X0120620Y0089022D01*
X0121044Y0086625D02*
X0122545Y0086625D01*
X0122287Y0085426D02*
X0121302Y0085426D01*
X0121302Y0084228D02*
X0122287Y0084228D01*
X0122287Y0083029D02*
X0121302Y0083029D01*
X0121302Y0081831D02*
X0122287Y0081831D01*
X0122287Y0080632D02*
X0121302Y0080632D01*
X0115144Y0086625D02*
X0114749Y0086625D01*
X0113554Y0087823D02*
X0134537Y0087823D01*
X0121302Y0099546D02*
X0120599Y0098843D01*
X0115589Y0098843D01*
X0114886Y0099546D01*
X0114886Y0100741D01*
X0114522Y0100741D01*
X0113351Y0101912D01*
X0109416Y0105846D01*
X0088135Y0105846D01*
X0087625Y0105337D01*
X0079938Y0105337D01*
X0079235Y0106040D01*
X0079235Y0109593D01*
X0079938Y0110296D01*
X0087625Y0110296D01*
X0088075Y0109846D01*
X0111073Y0109846D01*
X0114886Y0106034D01*
X0114886Y0106052D01*
X0115589Y0106755D01*
X0120599Y0106755D01*
X0121302Y0106052D01*
X0121302Y0099546D01*
X0121302Y0099808D02*
X0122287Y0099808D01*
X0122287Y0101007D02*
X0121302Y0101007D01*
X0121302Y0102205D02*
X0122287Y0102205D01*
X0122287Y0103404D02*
X0121302Y0103404D01*
X0121302Y0104602D02*
X0122287Y0104602D01*
X0122287Y0105801D02*
X0121302Y0105801D01*
X0121302Y0109396D02*
X0122287Y0109396D01*
X0122287Y0110595D02*
X0121302Y0110595D01*
X0121302Y0111793D02*
X0122287Y0111793D01*
X0122287Y0112992D02*
X0121302Y0112992D01*
X0121302Y0114190D02*
X0122287Y0114190D01*
X0122287Y0115389D02*
X0121302Y0115389D01*
X0120609Y0116587D02*
X0122981Y0116587D01*
X0128010Y0116587D02*
X0153453Y0116587D01*
X0152944Y0115389D02*
X0128703Y0115389D01*
X0128703Y0110595D02*
X0152944Y0110595D01*
X0152944Y0109396D02*
X0128703Y0109396D01*
X0114886Y0109396D02*
X0111523Y0109396D01*
X0112722Y0108198D02*
X0165048Y0108198D01*
X0165048Y0106999D02*
X0113920Y0106999D01*
X0114886Y0110595D02*
X0087883Y0110595D01*
X0088089Y0105801D02*
X0109462Y0105801D01*
X0110660Y0104602D02*
X0106295Y0104602D01*
X0107494Y0103404D02*
X0111859Y0103404D01*
X0113057Y0102205D02*
X0108692Y0102205D01*
X0109891Y0101007D02*
X0114256Y0101007D01*
X0114886Y0099808D02*
X0111089Y0099808D01*
X0107829Y0097411D02*
X0103992Y0097411D01*
X0102798Y0098610D02*
X0106631Y0098610D01*
X0105432Y0099808D02*
X0088113Y0099808D01*
X0087907Y0095014D02*
X0100733Y0095014D01*
X0101929Y0093816D02*
X0089449Y0093816D01*
X0090647Y0092617D02*
X0103124Y0092617D01*
X0106382Y0095014D02*
X0110226Y0095014D01*
X0109028Y0096213D02*
X0105187Y0096213D01*
X0107578Y0093816D02*
X0111425Y0093816D01*
X0112623Y0092617D02*
X0108773Y0092617D01*
X0109968Y0091419D02*
X0113822Y0091419D01*
X0114886Y0090220D02*
X0111163Y0090220D01*
X0112359Y0089022D02*
X0115568Y0089022D01*
X0114889Y0096213D02*
X0114685Y0096213D01*
X0103165Y0085426D02*
X0087715Y0085426D01*
X0087921Y0080632D02*
X0095535Y0080632D01*
X0098795Y0083029D02*
X0104751Y0083029D01*
X0104751Y0081831D02*
X0099993Y0081831D01*
X0100746Y0080632D02*
X0104751Y0080632D01*
X0104751Y0079434D02*
X0100746Y0079434D01*
X0100967Y0078235D02*
X0105552Y0078235D01*
X0106751Y0077037D02*
X0102165Y0077037D01*
X0103364Y0075838D02*
X0107949Y0075838D01*
X0109148Y0074640D02*
X0104562Y0074640D01*
X0105761Y0073441D02*
X0110346Y0073441D01*
X0111545Y0072243D02*
X0106959Y0072243D01*
X0108158Y0071044D02*
X0114886Y0071044D01*
X0115059Y0069846D02*
X0109356Y0069846D01*
X0110555Y0068647D02*
X0165051Y0068647D01*
X0153526Y0067448D02*
X0111753Y0067448D01*
X0112952Y0066250D02*
X0114886Y0066250D01*
X0109692Y0063853D02*
X0092839Y0063853D01*
X0094037Y0062654D02*
X0110891Y0062654D01*
X0112089Y0061456D02*
X0095236Y0061456D01*
X0096434Y0060257D02*
X0114886Y0060257D01*
X0121302Y0060257D02*
X0122287Y0060257D01*
X0122287Y0061456D02*
X0121302Y0061456D01*
X0121302Y0062654D02*
X0122287Y0062654D01*
X0122287Y0063853D02*
X0121302Y0063853D01*
X0121302Y0065051D02*
X0122287Y0065051D01*
X0122287Y0066250D02*
X0121302Y0066250D01*
X0108494Y0065051D02*
X0087870Y0065051D01*
X0087625Y0065337D02*
X0088328Y0066040D01*
X0088328Y0069593D01*
X0087625Y0070296D01*
X0079938Y0070296D01*
X0079235Y0069593D01*
X0079235Y0066040D01*
X0079938Y0065337D01*
X0087625Y0065337D01*
X0088328Y0066250D02*
X0107295Y0066250D01*
X0106097Y0067448D02*
X0097131Y0067448D01*
X0097173Y0068647D02*
X0104898Y0068647D01*
X0103700Y0069846D02*
X0097173Y0069846D01*
X0097072Y0070104D02*
X0093923Y0070104D01*
X0090576Y0070104D01*
X0090836Y0069846D02*
X0088076Y0069846D01*
X0087625Y0070337D02*
X0088328Y0071040D01*
X0088328Y0074593D01*
X0087625Y0075296D01*
X0079938Y0075296D01*
X0079235Y0074593D01*
X0079235Y0071040D01*
X0079938Y0070337D01*
X0087625Y0070337D01*
X0088328Y0071044D02*
X0090836Y0071044D01*
X0090836Y0072243D02*
X0088328Y0072243D01*
X0088328Y0073441D02*
X0091462Y0073441D01*
X0090836Y0074640D02*
X0088282Y0074640D01*
X0093923Y0070301D02*
X0093923Y0070104D01*
X0093923Y0066167D01*
X0090878Y0067448D02*
X0088328Y0067448D01*
X0088328Y0068647D02*
X0090836Y0068647D01*
X0097173Y0071044D02*
X0102501Y0071044D01*
X0101303Y0072243D02*
X0097173Y0072243D01*
X0096547Y0073441D02*
X0100104Y0073441D01*
X0098905Y0074640D02*
X0097173Y0074640D01*
X0097173Y0075838D02*
X0097707Y0075838D01*
X0097596Y0084228D02*
X0104363Y0084228D01*
X0079849Y0085426D02*
X0071021Y0085426D01*
X0072219Y0084228D02*
X0079235Y0084228D01*
X0079235Y0083029D02*
X0073418Y0083029D01*
X0074616Y0081831D02*
X0079235Y0081831D01*
X0079643Y0080632D02*
X0075815Y0080632D01*
X0075389Y0074640D02*
X0079282Y0074640D01*
X0079235Y0073441D02*
X0074190Y0073441D01*
X0072992Y0072243D02*
X0079235Y0072243D01*
X0079235Y0071044D02*
X0071793Y0071044D01*
X0070595Y0069846D02*
X0079488Y0069846D01*
X0079235Y0068647D02*
X0069396Y0068647D01*
X0068198Y0067448D02*
X0079235Y0067448D01*
X0079235Y0066250D02*
X0066999Y0066250D01*
X0065801Y0065051D02*
X0079694Y0065051D01*
X0079235Y0063853D02*
X0064602Y0063853D01*
X0063404Y0062654D02*
X0079235Y0062654D01*
X0079235Y0061456D02*
X0062205Y0061456D01*
X0061006Y0060257D02*
X0079900Y0060257D01*
X0087664Y0060257D02*
X0090777Y0060257D01*
X0090080Y0059059D02*
X0091976Y0059059D01*
X0079235Y0086625D02*
X0069822Y0086625D01*
X0068624Y0087823D02*
X0079235Y0087823D01*
X0079235Y0089022D02*
X0067425Y0089022D01*
X0067383Y0090220D02*
X0079863Y0090220D01*
X0079235Y0091419D02*
X0067383Y0091419D01*
X0067383Y0092617D02*
X0079235Y0092617D01*
X0079235Y0093816D02*
X0067383Y0093816D01*
X0067383Y0095014D02*
X0079657Y0095014D01*
X0079235Y0096213D02*
X0067383Y0096213D01*
X0067383Y0097411D02*
X0079235Y0097411D01*
X0079235Y0098610D02*
X0067383Y0098610D01*
X0067383Y0099808D02*
X0079451Y0099808D01*
X0079268Y0101007D02*
X0067383Y0101007D01*
X0067383Y0102205D02*
X0079235Y0102205D01*
X0079235Y0103404D02*
X0067383Y0103404D01*
X0067383Y0104602D02*
X0079245Y0104602D01*
X0079474Y0105801D02*
X0067383Y0105801D01*
X0067383Y0106999D02*
X0079235Y0106999D01*
X0079235Y0108198D02*
X0067383Y0108198D01*
X0067383Y0109396D02*
X0079235Y0109396D01*
X0079680Y0110595D02*
X0067383Y0110595D01*
X0067383Y0111793D02*
X0079235Y0111793D01*
X0079235Y0112992D02*
X0067138Y0112992D01*
X0065940Y0114190D02*
X0079235Y0114190D01*
X0079886Y0115389D02*
X0064741Y0115389D01*
X0063543Y0116587D02*
X0077662Y0116587D01*
X0076259Y0117786D02*
X0062344Y0117786D01*
X0061146Y0118984D02*
X0074840Y0118984D01*
X0074105Y0120183D02*
X0059947Y0120183D01*
X0058749Y0121381D02*
X0074105Y0121381D01*
X0074105Y0122580D02*
X0058721Y0122580D01*
X0058721Y0123779D02*
X0074105Y0123779D01*
X0074105Y0124977D02*
X0058721Y0124977D01*
X0058721Y0126176D02*
X0074105Y0126176D01*
X0074105Y0127374D02*
X0058721Y0127374D01*
X0058721Y0128573D02*
X0074105Y0128573D01*
X0071655Y0129771D02*
X0070510Y0129771D01*
X0070510Y0130970D02*
X0071655Y0130970D01*
X0071655Y0132168D02*
X0070510Y0132168D01*
X0070510Y0133367D02*
X0071655Y0133367D01*
X0071655Y0134565D02*
X0070510Y0134565D01*
X0069929Y0134063D02*
X0062033Y0134080D01*
X0061813Y0134565D02*
X0060668Y0134565D01*
X0060668Y0133367D02*
X0061813Y0133367D01*
X0061813Y0132168D02*
X0060668Y0132168D01*
X0060668Y0130970D02*
X0061813Y0130970D01*
X0061813Y0129771D02*
X0060668Y0129771D01*
X0066148Y0129294D02*
X0066148Y0135987D01*
X0061813Y0135764D02*
X0060668Y0135764D01*
X0060668Y0136962D02*
X0061813Y0136962D01*
X0070510Y0136962D02*
X0071655Y0136962D01*
X0071655Y0135764D02*
X0070510Y0135764D01*
X0080353Y0135764D02*
X0081498Y0135764D01*
X0081498Y0136962D02*
X0080353Y0136962D01*
X0080353Y0134565D02*
X0081498Y0134565D01*
X0081498Y0133367D02*
X0080353Y0133367D01*
X0080353Y0132168D02*
X0081498Y0132168D01*
X0081498Y0130970D02*
X0080353Y0130970D01*
X0080353Y0129771D02*
X0081498Y0129771D01*
X0084013Y0128573D02*
X0078105Y0128573D01*
X0078105Y0127374D02*
X0084013Y0127374D01*
X0084013Y0126176D02*
X0078105Y0126176D01*
X0078105Y0124977D02*
X0084013Y0124977D01*
X0084861Y0123779D02*
X0078105Y0123779D01*
X0078105Y0122580D02*
X0086059Y0122580D01*
X0087258Y0121381D02*
X0078209Y0121381D01*
X0079611Y0120183D02*
X0079826Y0120183D01*
X0087738Y0120183D02*
X0088456Y0120183D01*
X0088576Y0118984D02*
X0088328Y0118984D01*
X0088328Y0117786D02*
X0088576Y0117786D01*
X0088576Y0116587D02*
X0088328Y0116587D01*
X0088576Y0115389D02*
X0087678Y0115389D01*
X0092576Y0115389D02*
X0114886Y0115389D01*
X0115579Y0116587D02*
X0092576Y0116587D01*
X0092576Y0117786D02*
X0165047Y0117786D01*
X0165047Y0118984D02*
X0092576Y0118984D01*
X0092576Y0120183D02*
X0165047Y0120183D01*
X0165047Y0121381D02*
X0092576Y0121381D01*
X0091716Y0122580D02*
X0165046Y0122580D01*
X0165046Y0123779D02*
X0090518Y0123779D01*
X0089319Y0124977D02*
X0165046Y0124977D01*
X0165046Y0126176D02*
X0088121Y0126176D01*
X0088013Y0127374D02*
X0165046Y0127374D01*
X0165046Y0128573D02*
X0088013Y0128573D01*
X0090195Y0129771D02*
X0091340Y0129771D01*
X0091340Y0130970D02*
X0090195Y0130970D01*
X0090195Y0132168D02*
X0091340Y0132168D01*
X0091340Y0133367D02*
X0090195Y0133367D01*
X0090195Y0134565D02*
X0091340Y0134565D01*
X0091340Y0135764D02*
X0090195Y0135764D01*
X0090195Y0136962D02*
X0091340Y0136962D01*
X0100038Y0136962D02*
X0165045Y0136962D01*
X0165045Y0135764D02*
X0100038Y0135764D01*
X0100038Y0134565D02*
X0165045Y0134565D01*
X0165046Y0133367D02*
X0100038Y0133367D01*
X0100038Y0132168D02*
X0165046Y0132168D01*
X0165046Y0130970D02*
X0100038Y0130970D01*
X0100038Y0129771D02*
X0165046Y0129771D01*
X0059717Y0114190D02*
X0055909Y0114190D01*
X0057108Y0115389D02*
X0058519Y0115389D01*
X0058096Y0118923D02*
X0054475Y0115302D01*
X0053729Y0117102D02*
X0050691Y0117102D01*
X0050691Y0119593D01*
X0049988Y0120296D01*
X0047888Y0120296D01*
X0047888Y0128905D01*
X0050122Y0128905D01*
X0050825Y0129608D01*
X0050825Y0137388D01*
X0051970Y0137387D01*
X0051970Y0129608D01*
X0052673Y0128905D01*
X0054321Y0128905D01*
X0054321Y0119586D01*
X0055268Y0118640D01*
X0053729Y0117102D01*
X0054414Y0117786D02*
X0050691Y0117786D01*
X0050691Y0118984D02*
X0054923Y0118984D01*
X0054321Y0120183D02*
X0050100Y0120183D01*
X0047888Y0121381D02*
X0054321Y0121381D01*
X0054321Y0122580D02*
X0047888Y0122580D01*
X0047888Y0123779D02*
X0054321Y0123779D01*
X0054321Y0124977D02*
X0047888Y0124977D01*
X0047888Y0126176D02*
X0054321Y0126176D01*
X0054321Y0127374D02*
X0047888Y0127374D01*
X0047888Y0128573D02*
X0054321Y0128573D01*
X0051970Y0129771D02*
X0050825Y0129771D01*
X0050825Y0130970D02*
X0051970Y0130970D01*
X0051970Y0132168D02*
X0050825Y0132168D01*
X0050825Y0133367D02*
X0051970Y0133367D01*
X0051970Y0134565D02*
X0050825Y0134565D01*
X0050825Y0135764D02*
X0051970Y0135764D01*
X0051970Y0136962D02*
X0050825Y0136962D01*
X0046088Y0132309D02*
X0046088Y0118135D01*
X0051206Y0123254D02*
X0051206Y0127387D01*
X0041364Y0126797D02*
X0039002Y0129159D01*
X0021147Y0115389D02*
X0020601Y0115389D01*
X0017742Y0118332D02*
X0017545Y0118332D01*
X0017545Y0121679D01*
X0014162Y0116587D02*
X0005944Y0116587D01*
X0005944Y0115389D02*
X0014454Y0115389D01*
X0014210Y0048272D02*
X0005944Y0048272D01*
X0005944Y0047074D02*
X0014649Y0047074D01*
X0147969Y0049471D02*
X0153596Y0049471D01*
X0152944Y0050669D02*
X0148644Y0050669D01*
X0148644Y0051868D02*
X0152944Y0051868D01*
D22*
X0138677Y0053512D02*
X0100351Y0053512D01*
X0091080Y0062783D01*
X0085801Y0062783D01*
X0085261Y0057702D02*
X0088608Y0057702D01*
X0091954Y0054356D01*
X0091954Y0048647D01*
X0089789Y0046482D01*
X0066167Y0046482D01*
X0064537Y0044852D01*
X0064537Y0040108D01*
X0061401Y0039902D02*
X0061401Y0047621D01*
X0063214Y0049435D01*
X0088214Y0049435D01*
X0089198Y0050419D01*
X0089198Y0051797D01*
X0088214Y0052781D01*
X0087033Y0052781D01*
X0070812Y0043569D02*
X0070812Y0041404D01*
X0071088Y0038214D02*
X0072860Y0038214D01*
X0098746Y0077627D02*
X0113192Y0063181D01*
X0117405Y0063181D01*
X0125835Y0063439D02*
X0158115Y0063439D01*
X0158217Y0073257D02*
X0126195Y0073257D01*
X0129657Y0075715D02*
X0146424Y0075715D01*
X0149079Y0078370D01*
X0145966Y0083041D02*
X0157202Y0083041D01*
X0149228Y0087656D02*
X0143793Y0087656D01*
X0138029Y0081892D01*
X0141169Y0078244D02*
X0145966Y0083041D01*
X0141169Y0078244D02*
X0112779Y0078244D01*
X0109438Y0081585D01*
X0109438Y0085595D01*
X0104451Y0090582D01*
X0089854Y0090582D01*
X0087746Y0092690D01*
X0085896Y0092690D01*
X0086172Y0087763D02*
X0103657Y0087763D01*
X0106751Y0084668D01*
X0106751Y0079864D01*
X0113369Y0073247D01*
X0117627Y0073247D01*
X0117559Y0082614D02*
X0114629Y0082614D01*
X0113704Y0083539D01*
X0113683Y0084862D01*
X0100801Y0097779D01*
X0085896Y0097779D01*
X0086116Y0102880D02*
X0105189Y0102880D01*
X0115469Y0092600D01*
X0117764Y0092600D01*
X0125608Y0093027D02*
X0128691Y0093027D01*
X0138373Y0102709D01*
X0157133Y0102709D01*
X0157518Y0092899D02*
X0142442Y0092899D01*
X0132718Y0083175D01*
X0125693Y0083175D01*
X0125491Y0099672D02*
X0125491Y0105831D01*
X0127737Y0102971D02*
X0123155Y0102971D01*
X0117237Y0102741D02*
X0115351Y0102741D01*
X0110245Y0107846D01*
X0085641Y0107846D01*
X0085458Y0112820D02*
X0090576Y0112820D01*
X0090576Y0120891D01*
X0086013Y0125455D01*
X0086013Y0131710D01*
X0076105Y0132753D02*
X0076105Y0120548D01*
X0079159Y0117939D01*
X0081521Y0117939D01*
X0089789Y0112821D02*
X0117945Y0112820D01*
X0125666Y0112727D02*
X0158049Y0112727D01*
X0098746Y0080249D02*
X0098746Y0077627D01*
X0098746Y0080249D02*
X0096176Y0082819D01*
X0086102Y0082819D01*
X0086150Y0072829D02*
X0088008Y0072829D01*
X0023254Y0055931D02*
X0023254Y0050616D01*
X0023450Y0111639D02*
X0023450Y0117151D01*
D23*
X0041030Y0008091D02*
X0047723Y0008091D01*
X0046738Y0008091D02*
X0053431Y0008091D01*
X0075282Y0008091D02*
X0081975Y0008091D01*
X0080990Y0008091D02*
X0087683Y0008091D01*
D24*
X0145694Y0024631D03*
M02*
